<svg width="25" height="25" viewBox="0 0 25 25" fill="none" xmlns="http://www.w3.org/2000/svg">
<path d="M18.9305 21.6666H6.0704C5.90778 21.6654 5.74766 21.6281 5.60261 21.5577C5.45756 21.4872 5.33152 21.3855 5.2344 21.2605C5.13025 21.1281 5.05502 20.977 5.01319 20.8161C4.97136 20.6552 4.9638 20.4879 4.99095 20.3242C5.18132 19.0314 5.70108 17.8034 6.50428 16.7488C7.30748 15.6942 8.3694 14.8454 9.59618 14.2775C9.67193 14.2423 9.73663 14.1885 9.78374 14.1216C9.83085 14.0548 9.8587 13.9771 9.86448 13.8966C9.87284 13.8152 9.85919 13.7331 9.82485 13.6582C9.79051 13.5834 9.73664 13.5182 9.66842 13.469C8.67881 12.751 7.94345 11.7588 7.56198 10.6269C7.18052 9.49498 7.17137 8.27803 7.5358 7.14096C8.26613 4.76547 10.4198 3.2058 12.7824 3.34145C15.4927 3.49224 17.6564 5.85579 17.7172 8.72124C17.7501 9.63815 17.5504 10.549 17.1352 11.3757C16.72 12.2024 16.1018 12.9203 15.3335 13.4676C15.2644 13.5165 15.2097 13.5817 15.1747 13.6569C15.1398 13.7321 15.1258 13.8147 15.134 13.8966C15.1395 13.9778 15.1674 14.0561 15.2149 14.1235C15.2624 14.1909 15.3277 14.245 15.4043 14.2802C16.6308 14.8477 17.6926 15.696 18.4958 16.7501C19.2991 17.8043 19.8189 19.0318 20.0095 20.3242C20.0364 20.4878 20.0287 20.655 19.9868 20.8158C19.945 20.9765 19.8699 21.1276 19.766 21.26C19.6694 21.3846 19.5441 21.486 19.3998 21.5566C19.2556 21.6271 19.0963 21.6647 18.9344 21.6666H18.9305ZM1.66893 18.7416C1.53103 18.5457 1.47456 18.3075 1.51062 18.0738C1.61384 17.1796 1.93865 16.3221 2.45796 15.5726C2.97726 14.8232 3.67602 14.2036 4.49596 13.7656C4.54691 13.7385 4.58972 13.6993 4.6203 13.6518C4.65087 13.6043 4.66818 13.55 4.67054 13.4942C4.67665 13.4374 4.66826 13.38 4.6461 13.327C4.62393 13.274 4.58866 13.2269 4.54331 13.1899C3.88746 12.643 3.40843 11.9279 3.16269 11.1288C2.91695 10.3296 2.91475 9.47984 3.15634 8.67956C3.62982 6.98376 5.02779 5.87325 6.55969 5.97543L6.60752 5.97956C6.17132 7.29829 6.07886 8.69934 6.33824 10.0602C6.59761 11.4211 7.20092 12.7004 8.09542 13.7862C6.28038 15.0916 4.96732 16.936 4.3611 19.0317H2.20887C2.10115 19.0288 1.99576 19.001 1.90178 18.9504C1.8078 18.8999 1.72805 18.8282 1.6694 18.7416H1.66893ZM22.7902 19.0289H20.6379C20.0312 16.9322 18.7167 15.0871 16.8998 13.7821C18.1844 12.2639 18.856 10.3535 18.7918 8.39998C18.7779 7.57869 18.641 6.76357 18.3853 5.97956C18.5254 5.96802 18.6663 5.96634 18.8067 5.97453C20.2721 6.06345 21.5203 7.23904 21.8967 8.88489C22.0931 9.66035 22.0627 10.4727 21.8089 11.2326C21.5551 11.9926 21.0878 12.6709 20.4581 13.1931C20.4127 13.23 20.3773 13.277 20.355 13.3299C20.3327 13.3828 20.3241 13.4402 20.3299 13.497C20.3321 13.5529 20.3493 13.6073 20.3798 13.6549C20.4103 13.7026 20.4531 13.742 20.504 13.7692C21.324 14.2073 22.0228 14.8269 22.5422 15.5763C23.0616 16.3257 23.3865 17.1833 23.4899 18.0775C23.525 18.311 23.4681 18.5488 23.3301 18.7443C23.2714 18.8305 23.1918 18.9017 23.0981 18.9519C23.0044 19.0022 22.8994 19.0298 22.7921 19.0326L22.7902 19.0289Z" fill="#46D69C"/>
</svg>
