<svg width="21" height="21" viewBox="0 0 21 21" fill="none" xmlns="http://www.w3.org/2000/svg">
<path d="M20.2481 8.39129L11.7616 0.980284C11.4021 0.670441 10.9434 0.5 10.4688 0.5C9.99427 0.5 9.53551 0.670441 9.17607 0.980284L0.753967 8.39573C0.614088 8.52664 0.525914 8.70347 0.505518 8.89396C0.485122 9.08446 0.533864 9.27594 0.642857 9.43349C0.691924 9.50796 0.756423 9.571 0.831983 9.61836C0.907544 9.66572 0.992402 9.69628 1.08081 9.70797C1.16921 9.71967 1.2591 9.71223 1.34437 9.68615C1.42965 9.66007 1.50832 9.61597 1.57507 9.55683L1.84617 9.31794V18.28C1.84617 19.5489 3.02838 20.5 4.08614 20.5H17.3726C18.4159 20.5 19.1193 19.6089 19.1193 18.28V9.29461L19.4193 9.55683C19.5317 9.65908 19.6783 9.71573 19.8304 9.71571C19.9341 9.71452 20.0359 9.68822 20.1273 9.63907C20.2186 9.58992 20.2967 9.51939 20.3548 9.43349C20.4656 9.27607 20.5157 9.08395 20.4962 8.89246C20.4766 8.70098 20.3885 8.52301 20.2481 8.39129ZM12.4794 17.4734V19.0167H8.49385V14.8756C8.49385 14.0157 9.11829 13.089 10.486 13.089C11.8582 13.089 12.4794 14.0157 12.4794 14.8756V17.4734Z" fill="#46D69C"/>
</svg>
