<svg width="21" height="21" viewBox="0 0 21 21" fill="none" xmlns="http://www.w3.org/2000/svg">
<path fill-rule="evenodd" clip-rule="evenodd" d="M0.259766 10.5C0.259766 16.007 4.76681 20.5 10.2598 20.5C15.7527 20.5 20.2457 16.007 20.2598 10.5C20.2598 4.99296 15.7527 0.5 10.2598 0.5C4.75272 0.5 0.259766 5.00704 0.259766 10.5ZM11.9118 15.9069L15.6524 12.1779C16.4746 11.3325 16.4746 9.97757 15.6524 9.13217L11.9118 5.40317C11.0664 4.58094 9.69989 4.58094 8.87766 5.40317L5.14866 9.13217C4.32642 9.97757 4.32642 11.3441 5.14866 12.1663L8.87766 15.9069C9.72305 16.7291 11.0896 16.7291 11.9118 15.9069ZM14.8649 10.6261L10.4295 15.0615L5.99405 10.6261L10.4295 6.20225L14.8649 10.6261Z" fill="#46D69C"/>
</svg>
