<svg width="25" height="25" viewBox="0 0 25 25" fill="none" xmlns="http://www.w3.org/2000/svg">
<path d="M12.2598 21.498C7.18034 21.498 3.00977 17.3402 3.00977 12.248C3.00977 7.16862 7.16762 2.99805 12.2598 2.99805C17.3388 2.99805 21.5091 7.15528 21.5098 12.2469C21.4963 17.3419 17.3372 21.498 12.2598 21.498Z" stroke="#9CA8BA" stroke-width="1.5"/>
<path d="M17.6526 13.9258L13.9121 17.6548C13.0898 18.4771 11.7233 18.4771 10.8779 17.6548L7.1489 13.9143C6.32667 13.092 6.32667 11.7255 7.1489 10.8801L10.8779 7.1511C11.7001 6.32887 13.0667 6.32887 13.9121 7.1511L17.6526 10.8801C18.4749 11.7255 18.4749 13.0804 17.6526 13.9258ZM12.4297 16.8094L16.8651 12.374L12.4297 7.95017L7.9943 12.374L12.4297 16.8094Z" fill="#9CA8BA"/>
</svg>
