<svg width="25" height="25" viewBox="0 0 25 25" fill="none" xmlns="http://www.w3.org/2000/svg">
<path d="M3.38707 10.7967L3.19636 10.9647C3.19934 10.9428 3.2092 10.9224 3.2245 10.9064L11.6319 3.50391C11.8649 3.30408 12.1618 3.19419 12.4688 3.19419C12.7763 3.19419 13.0736 3.30439 13.3067 3.50476C13.3072 3.50518 13.3077 3.5056 13.3082 3.50602L21.7776 10.9021C21.7932 10.9187 21.803 10.9401 21.8053 10.9629C21.8056 10.966 21.8058 10.9691 21.8059 10.9722L21.5763 10.7715L20.4248 9.76506V11.2944V20.2798C20.4248 20.828 20.2795 21.2199 20.0916 21.4585C19.9144 21.6835 19.6772 21.8053 19.3726 21.8053H6.08614C5.75529 21.8053 5.35881 21.6503 5.04149 21.3562C4.73059 21.0681 4.54061 20.6893 4.54061 20.2798V11.3177V9.78024L3.38707 10.7967ZM14.4794 21.7109H15.1738V21.0164V19.4731V16.8754C15.1738 16.2834 14.9606 15.6585 14.4973 15.1777C14.0247 14.6872 13.338 14.3943 12.486 14.3943C11.6357 14.3943 10.9497 14.6875 10.4772 15.1775C10.0141 15.6577 9.79942 16.2824 9.79942 16.8754V21.0164V21.7109H10.4939H14.4794Z" stroke="#9CA8BA" stroke-width="1.38887"/>
</svg>
