<svg width="25" height="25" viewBox="0 0 25 25" fill="none" xmlns="http://www.w3.org/2000/svg">
<path d="M5.36227 21.6117L5.35944 21.6082C5.31316 21.5508 5.28209 21.4884 5.26527 21.4253C5.24849 21.3624 5.24558 21.2978 5.25634 21.2345L5.25647 21.2346L5.25855 21.2208C5.4412 20.0117 5.9404 18.8589 6.71681 17.8651C7.49348 16.871 8.52425 16.0661 9.72134 15.5258L9.72256 15.5253C9.91778 15.4368 10.0909 15.2988 10.2201 15.12C10.3474 14.9438 10.4267 14.7352 10.4451 14.5144C10.466 14.2961 10.4271 14.0779 10.3346 13.8812C10.2407 13.6816 10.0963 13.514 9.92074 13.3906L9.48962 14.0044L9.92272 13.392C8.99349 12.7348 8.31134 11.8327 7.95909 10.8138C7.60712 9.7957 7.59875 8.70287 7.9349 7.68041L7.93495 7.68043L7.93769 7.67175C8.61483 5.52467 10.6014 4.13661 12.7582 4.25732L12.7595 4.25739C15.2297 4.39137 17.24 6.50271 17.2965 9.10022L17.2964 9.10022L17.2968 9.11153C17.327 9.93121 17.1441 10.7476 16.7609 11.4914L17.4277 11.8349L16.7609 11.4915C16.3776 12.2354 15.8041 12.8869 15.085 13.3865C14.9079 13.509 14.7618 13.6763 14.6665 13.8763C14.5725 14.0734 14.5325 14.2927 14.5529 14.5122C14.5707 14.7345 14.6501 14.9446 14.7782 15.1219C14.9085 15.3022 15.0833 15.4409 15.2805 15.5294L15.5875 14.8451L15.2791 15.5288C16.476 16.0685 17.5066 16.873 18.2832 17.8666C19.0596 18.8599 19.5589 20.0122 19.7418 21.2209L19.7417 21.2209L19.7437 21.2333C19.7544 21.2968 19.7515 21.3617 19.7346 21.4249C19.7177 21.4882 19.6865 21.5509 19.6402 21.6085L19.6377 21.6116C19.6081 21.6488 19.5662 21.6833 19.5126 21.7089C19.4597 21.7341 19.3988 21.7488 19.3351 21.75H5.66776C5.60335 21.7493 5.54176 21.7346 5.4882 21.7093L5.16723 22.3871L5.4882 21.7093C5.43419 21.6837 5.39204 21.649 5.36227 21.6117Z" stroke="#9CA8BA" stroke-width="1.5"/>
<path d="M5.7697 6.93799C5.09644 7.45962 4.57103 8.23823 4.30768 9.18303C4.04401 10.0579 4.04642 10.9869 4.31461 11.8605C4.5828 12.7341 5.1056 13.5159 5.82137 14.1138C5.87087 14.1543 5.90936 14.2057 5.93355 14.2637C5.95774 14.3216 5.9669 14.3843 5.96023 14.4464C5.95765 14.5074 5.93877 14.5667 5.9054 14.6187C5.87203 14.6706 5.8253 14.7135 5.7697 14.7431C4.87485 15.222 4.11224 15.8993 3.54548 16.7186C2.97872 17.5379 2.62424 18.4754 2.51159 19.4529C2.47224 19.7084 2.53387 19.9688 2.68437 20.1829C2.74838 20.2776 2.83592 20.356 2.93849 20.4112C3.04105 20.4664 3.15607 20.4969 3.27364 20.5L3.5 20.5" stroke="#9CA8BA" stroke-width="1.5" stroke-linecap="round"/>
<path d="M19.2303 6.93799C19.9036 7.45962 20.429 8.23823 20.6923 9.18303C20.956 10.0579 20.9536 10.9869 20.6854 11.8605C20.4172 12.7341 19.8944 13.5159 19.1786 14.1138C19.1291 14.1543 19.0906 14.2057 19.0664 14.2637C19.0423 14.3216 19.0331 14.3843 19.0398 14.4464C19.0424 14.5074 19.0612 14.5667 19.0946 14.6187C19.128 14.6706 19.1747 14.7135 19.2303 14.7431C20.1252 15.222 20.8878 15.8993 21.4545 16.7186C22.0213 17.5379 22.3758 18.4754 22.4884 19.4529C22.5278 19.7084 22.4661 19.9688 22.3156 20.1829C22.2516 20.2776 22.1641 20.356 22.0615 20.4112C21.9589 20.4664 21.8439 20.4969 21.7264 20.5L21.5 20.5" stroke="#9CA8BA" stroke-width="1.5" stroke-linecap="round"/>
</svg>
