<svg width="20" height="24" viewBox="0 0 20 24" fill="none" xmlns="http://www.w3.org/2000/svg">
<path d="M6.9541 21.0698C6.9541 22.6567 8.24042 23.943 9.82709 23.943C11.4141 23.943 12.7004 22.6567 12.7004 21.0698C12.7099 21.0873 6.97245 21.0745 6.9541 21.0698Z" fill="#242424"/>
<path d="M17.8283 13.9332C17.8156 13.8585 17.8037 13.7778 17.7925 13.6914C17.7255 13.1729 17.7019 12.6281 17.7019 12.2923V9.98887C17.7019 6.77377 15.9511 3.89883 13.2849 2.51672C12.8273 1.05417 11.4451 0 9.82717 0C8.20117 0 6.81135 1.06554 6.36205 2.54224C3.74955 3.94833 1.95273 6.83077 1.95273 9.98852V12.2691C1.95273 12.6096 1.92948 13.1601 1.86287 13.6851C1.85205 13.7708 1.84014 13.8512 1.82809 13.9257C0.909062 14.3594 0.25 15.2977 0.25 16.4108C0.25 17.9411 1.50032 19.1546 3.01689 19.1546H9.82719H15.7865H16.6378C18.1568 19.1546 19.4047 17.938 19.4047 16.4108C19.4047 15.309 18.7568 14.3721 17.8283 13.9332ZM16.6378 17.2392H15.7864H9.82717H3.01687C2.54643 17.2392 2.1655 16.8714 2.1655 16.4107C2.1655 15.9534 2.54399 15.5828 3.03873 15.5828C3.86826 15.5539 3.86826 12.2691 3.86826 12.2691V9.98852C3.86826 7.09158 5.79688 4.64287 8.14785 3.8457C8.13248 3.75689 8.1246 3.66527 8.1246 3.57211C8.1246 2.65692 8.88908 1.91534 9.82717 1.91534C10.7677 1.91534 11.5301 2.65903 11.5301 3.57211C11.5301 3.66441 11.5222 3.75532 11.5072 3.84377C13.9832 4.63852 15.7864 7.08844 15.7864 9.98887V12.2923C15.7864 12.2923 15.7864 15.5828 16.6378 15.5828C17.1082 15.5828 17.4892 15.9502 17.4892 16.4107C17.4892 16.8682 17.1103 17.2392 16.6378 17.2392Z" fill="#242424"/>
</svg>
