<svg width="20" height="20" viewBox="0 0 20 20" fill="none" xmlns="http://www.w3.org/2000/svg">
<circle cx="9.99967" cy="10.0002" r="6.66667" fill="white"/>
<path d="M9.99967 0.833496C15.0622 0.833496 19.1663 4.93764 19.1663 10.0002C19.1663 15.0627 15.0622 19.1668 9.99967 19.1668C4.93715 19.1668 0.833008 15.0627 0.833008 10.0002C0.833008 4.93764 4.93715 0.833496 9.99967 0.833496ZM13.923 7.22197C13.8591 7.15817 13.7833 7.10757 13.6998 7.07307C13.6164 7.03857 13.527 7.02085 13.4367 7.02091C13.3464 7.02098 13.257 7.03883 13.1736 7.07344C13.0902 7.10806 13.0145 7.15876 12.9507 7.22266L8.85934 11.3202L7.04732 9.5157C6.91779 9.38871 6.74332 9.31806 6.56193 9.31914C6.38054 9.32022 6.20692 9.39294 6.07891 9.52147C5.9509 9.64999 5.87887 9.8239 5.87852 10.0053C5.87817 10.1867 5.94952 10.3609 6.07703 10.4899L8.37557 12.779C8.50466 12.9076 8.6795 12.9797 8.86169 12.9794C9.04388 12.9792 9.21851 12.9066 9.34724 12.7777L13.9237 8.19433C13.9875 8.13044 14.0381 8.05461 14.0726 7.97117C14.1071 7.88772 14.1248 7.7983 14.1248 7.70801C14.1247 7.61772 14.1068 7.52832 14.0722 7.44492C14.0376 7.36153 13.9869 7.28577 13.923 7.22197Z" fill="#46D69C"/>
</svg>
