<svg width="18" height="18" viewBox="0 0 18 18" fill="none" xmlns="http://www.w3.org/2000/svg">
<path d="M6.25 16.25V12.75C6.25 12.25 6.5 12 7 12C7.5 12 7.75 12.25 7.75 12.75V16.25C7.75 16.75 7.5 17 7 17C6.5 17 6.25 16.75 6.25 16.25Z" fill="#46D69C"/>
<path d="M10.25 16.25V12.75C10.25 12.25 10.5 12 11 12C11.5 12 11.75 12.25 11.75 12.75V16.25C11.75 16.75 11.5 17 11 17C10.5 17 10.25 16.75 10.25 16.25Z" fill="#46D69C"/>
<path d="M9 1.5C9.26522 1.5 9.51957 1.60536 9.70711 1.79289C9.89464 1.98043 10 2.23478 10 2.5V6.5H16.5V8.5H1.5V6.5H8V2.5C8 2.23478 8.10536 1.98043 8.29289 1.79289C8.48043 1.60536 8.73478 1.5 9 1.5ZM9 0C8.33696 0 7.70107 0.263392 7.23223 0.732233C6.76339 1.20107 6.5 1.83696 6.5 2.5V5H1C0.734784 5 0.48043 5.10536 0.292893 5.29289C0.105357 5.48043 0 5.73478 0 6V9C0 9.26522 0.105357 9.51957 0.292893 9.70711C0.48043 9.89464 0.734784 10 1 10H17C17.2652 10 17.5196 9.89464 17.7071 9.70711C17.8946 9.51957 18 9.26522 18 9V6C18 5.73478 17.8946 5.48043 17.7071 5.29289C17.5196 5.10536 17.2652 5 17 5H11.5V2.5C11.5 1.83696 11.2366 1.20107 10.7678 0.732233C10.2989 0.263392 9.66304 0 9 0ZM15.5 10L16.5 16.5H1.5L2.5 10H1L0 17C0 17.2652 0.105357 17.5196 0.292893 17.7071C0.48043 17.8946 0.734784 18 1 18H17C17.2652 18 17.5196 17.8946 17.7071 17.7071C17.8946 17.5196 18 17.2652 18 17L17 10H15.5Z" fill="#242424"/>
</svg>
