<svg width="12" height="14" viewBox="0 0 12 14" fill="none" xmlns="http://www.w3.org/2000/svg">
<path d="M10.8929 11.102C10.6222 11.102 10.4028 10.8709 10.4028 10.582V1.70666H3.1104C2.83977 1.70666 2.62034 1.47557 2.62034 1.1867C2.62034 0.89784 2.83977 0.666748 3.1104 0.666748H10.4101C10.9441 0.666748 11.3829 1.13615 11.3829 1.70666V10.5748C11.3829 10.8637 11.1635 11.102 10.8929 11.102ZM9.37878 3.93814V12.2863C9.37878 12.864 8.93992 13.3335 8.40598 13.3335H1.58902C1.05507 13.3335 0.616211 12.864 0.616211 12.2863V3.93814C0.616211 3.36041 1.05507 2.89823 1.58902 2.89823H8.40598C8.93992 2.891 9.37878 3.36041 9.37878 3.93814ZM1.58902 12.2863H8.40598V3.93814H1.58902V12.2863Z" fill="#2A66FF"/>
</svg>
