<svg width="120" height="120" viewBox="0 0 120 120" fill="none" xmlns="http://www.w3.org/2000/svg">
<g clip-path="url(#clip0_303_3045)">
<path d="M55.7614 120C64.6773 120 71.6932 112.838 71.6932 104.068H39.8296C39.8296 112.838 46.9916 120 55.7614 120ZM90.5482 16.5166C78.5628 16.5166 68.9161 23.9709 68.9161 33.3254C68.9161 42.5337 78.5628 50.1341 90.5482 50.1341C102.534 50.1341 112.18 42.6798 112.18 33.3254C112.18 23.9709 102.534 16.5166 90.5482 16.5166ZM80.3168 36.1025C78.709 36.1025 77.5397 34.787 77.5397 33.3254C77.5397 31.7176 78.8552 30.5483 80.3168 30.5483C81.9246 30.5483 83.0939 31.8637 83.0939 33.3254C83.2401 34.9332 81.9246 36.1025 80.3168 36.1025ZM90.5482 36.1025C88.9404 36.1025 87.7711 34.787 87.7711 33.3254C87.7711 31.7176 89.0866 30.5483 90.5482 30.5483C92.0099 30.5483 93.3253 31.8637 93.3253 33.3254C93.3253 34.9332 92.156 36.1025 90.5482 36.1025ZM100.633 36.1025C99.0257 36.1025 97.8564 34.787 97.8564 33.3254C97.8564 31.7176 99.1718 30.5483 100.633 30.5483C102.095 30.5483 103.411 31.8637 103.411 33.3254C103.557 34.9332 102.241 36.1025 100.633 36.1025Z" fill="#D1D1D1"/>
<path d="M98.2947 87.9902C93.0328 87.9902 93.0328 66.7966 93.0328 66.7966V54.2265C92.302 54.2265 91.425 54.3727 90.6942 54.3727C76.3702 54.3727 64.6771 44.8721 64.6771 33.1791C64.6771 26.4555 68.6236 20.4629 74.7624 16.5164C72.1315 14.7625 69.3544 13.447 66.2849 12.4239C66.4311 11.8392 66.4311 11.2546 66.4311 10.6699C66.4311 4.82339 61.6077 0 55.7612 0C49.9147 0 45.0913 4.82339 45.0913 10.6699C45.0913 11.2546 45.0913 11.8392 45.2374 12.4239C30.475 17.5396 18.4896 33.3252 18.4896 51.8879V66.5043C18.4896 66.5043 18.4896 87.6979 13.3739 87.8441C10.3044 87.8441 7.96582 90.1827 7.96582 93.106C7.96582 96.0292 10.3044 98.3678 13.2277 98.3678H98.2947C101.218 98.3678 103.557 96.0292 103.557 93.106C103.703 90.475 101.218 87.9902 98.2947 87.9902ZM55.9074 15.3471C53.5687 15.3471 51.5225 13.447 51.5225 10.9622C51.5225 8.62363 53.4226 6.57734 55.9074 6.57734C58.246 6.57734 60.2922 8.47747 60.2922 10.9622C60.1461 13.447 58.246 15.3471 55.9074 15.3471Z" fill="#D1D1D1"/>
</g>
<defs>
<clipPath id="clip0_303_3045">
<rect width="120" height="120" fill="white"/>
</clipPath>
</defs>
</svg>
