<svg width="15" height="14" viewBox="0 0 15 14" fill="none" xmlns="http://www.w3.org/2000/svg">
<path d="M14.1063 2.01401C13.5313 1.40464 12.7485 1.06401 11.9328 1.06558H11.9297C11.1172 1.06401 10.336 1.40308 9.76252 2.00933L9.76095 2.01089L4.10002 7.96714C3.57345 8.52339 3.4172 9.35776 3.70314 10.0828C3.98908 10.8078 4.66252 11.2796 5.40939 11.2781C5.88127 11.2781 6.35158 11.0906 6.70939 10.7125L12.3703 4.7562C12.611 4.50308 12.611 4.0937 12.3703 3.84058C12.1297 3.58745 11.7406 3.58745 11.5 3.84058L5.84064 9.79683C5.72502 9.91714 5.56877 9.98433 5.40627 9.98433C5.24377 9.98433 5.08752 9.91558 4.97345 9.7937C4.85627 9.67495 4.79064 9.51089 4.78908 9.33901C4.78908 9.16714 4.85314 9.00308 4.96877 8.88276L10.6297 2.92651C10.9735 2.56245 11.4422 2.35933 11.9297 2.36089H11.9313C12.4203 2.35933 12.8906 2.56558 13.236 2.92964C13.5844 3.29526 13.7766 3.78433 13.7766 4.30151C13.7781 4.81558 13.5844 5.30933 13.2391 5.67183L11.711 7.27964L11.7016 7.28901L7.46564 11.7484C6.26408 13.0109 4.3172 13.0125 3.11408 11.75C2.53595 11.1437 2.21252 10.3203 2.21564 9.46245C2.21564 8.59683 2.53595 7.78276 3.1172 7.17183L8.88908 1.09839C9.1297 0.845264 9.1297 0.435889 8.88908 0.182764C8.64845 -0.0703613 8.25939 -0.0703613 8.01877 0.182764L2.24689 6.2562C1.43595 7.10464 0.981266 8.25933 0.984391 9.46245C0.984391 10.6734 1.43127 11.8125 2.24377 12.6656C3.05002 13.5156 4.14533 13.9921 5.28752 13.989C6.43127 13.9906 7.52814 13.514 8.33595 12.6625L14.3219 6.36401C14.3813 6.29995 14.4281 6.22339 14.4578 6.14058C14.8141 5.60308 15.0078 4.9687 15.0078 4.29995C15.0094 3.44214 14.6844 2.6187 14.1063 2.01401Z" fill="#2A66FF"/>
</svg>
