<svg width="20" height="20" viewBox="0 0 20 20" fill="none" xmlns="http://www.w3.org/2000/svg">
<path d="M16.4439 18.3334H4.94394C4.30879 18.3334 3.79395 17.8829 3.79395 17.3272V8.77403C3.79395 8.21827 4.30879 7.76778 4.94394 7.76778H6.66894V5.75528C6.66894 3.8102 8.471 2.2334 10.6939 2.2334C12.9169 2.2334 14.719 3.8102 14.719 5.75528V7.76778H16.4439C17.0791 7.76778 17.5939 8.21827 17.5939 8.77403V17.3272C17.5939 17.8829 17.0791 18.3334 16.4439 18.3334ZM10.1189 13.2097V15.3147H11.2689V13.2097C11.9374 13.0018 12.4189 12.449 12.4189 11.7928C12.4189 10.9591 11.6467 10.2834 10.6939 10.2834C9.74123 10.2834 8.96895 10.9591 8.96895 11.7928C8.96895 12.449 9.45044 13.0018 10.1189 13.2097ZM12.9939 5.75526C12.9939 4.64381 11.9642 3.74277 10.6939 3.74277C9.42371 3.74277 8.39395 4.64381 8.39395 5.75526V7.76776H12.994L12.9939 5.75526Z" fill="#989898"/>
</svg>
