<svg width="60" height="60" viewBox="0 0 60 60" fill="none" xmlns="http://www.w3.org/2000/svg">
<path d="M14.4075 8.94631L1.46338 22.683H13.1707L18.909 16.4664C20.8483 14.3656 23.5772 13.1708 26.4363 13.1708H35.8536C44.3399 13.1708 51.2195 20.0503 51.2195 28.5366V29.2683V30C51.2195 38.0822 44.6675 44.6342 36.5853 44.6342L26.3414 55.6098H36.2195C49.3531 55.6098 60 44.9629 60 31.8293V26.3415C60 13.8141 49.8445 3.65857 37.317 3.65857H27.439H26.6557C22.0189 3.65857 17.5875 5.57168 14.4075 8.94631Z" fill="#46D69C"/>
<path d="M31.0975 19.7561H17.9268L6.21948 32.1951H19.7561L31.0975 19.7561Z" fill="#46D69C"/>
<path d="M34.3902 30H23.4146L0 55.6098H11.3415L34.3902 30Z" fill="#46D69C"/>
<path d="M33.6584 44.6342H24.1462L13.9023 55.6098H23.7804L33.6584 44.6342Z" fill="#46D69C"/>
</svg>
