<svg width="32" height="32" viewBox="0 0 32 32" fill="none" xmlns="http://www.w3.org/2000/svg">
<rect width="32" height="32" rx="16" fill="#46D69C" fill-opacity="0.1"/>
<path d="M25.0537 15.7653V23.6322C25.0537 25.0463 23.9182 26.1954 22.5087 26.2183L22.4659 26.2186H9.58094C8.16602 26.2186 7.01634 25.0837 6.99348 23.6749L6.99313 23.6322V15.7653H15.3495V23.7659L15.3497 23.7818C15.3585 24.147 15.6689 24.4404 16.0504 24.4404C16.4375 24.4404 16.7512 24.1384 16.7512 23.7659V15.7653H25.0537V15.7653ZM13.1545 6.89441L13.1887 6.92075L16.0427 9.14943L18.8666 6.94417L18.9009 6.91782C20.0373 6.05931 21.6562 6.26786 22.5359 7.39386C23.1355 8.16121 23.2385 9.15857 22.8926 9.99934L23.8677 9.99932C25.3862 9.99932 26.6172 11.2297 26.6172 12.7474C26.6172 13.3515 26.4222 13.9101 26.0916 14.3637L16.7512 14.3636V10.0153L16.7511 9.99932C15.3753 10.0148 16.7688 10.0095 15.3495 10.0153L15.3495 14.3636L5.95523 14.3637C5.62469 13.9101 5.42969 13.3515 5.42969 12.7474C5.42969 11.2297 6.6607 9.99932 8.17921 9.99932H9.17249C8.81502 9.15369 8.91438 8.14494 9.51944 7.37045C10.3992 6.24447 12.0181 6.03589 13.1545 6.89441ZM19.745 8.03605L19.729 8.04826L17.2306 9.99929H21.2356L21.2109 9.96765L21.2376 9.94656C21.7517 9.53139 21.8395 8.77923 21.4314 8.25686C21.0232 7.73448 20.2722 7.63773 19.745 8.03605ZM10.624 8.23344C10.2159 8.75582 10.3037 9.50797 10.8178 9.92317L10.8445 9.94426L10.8015 9.99929H14.8547L12.3263 8.02487C11.7984 7.61242 11.0363 7.70579 10.624 8.23344Z" fill="#46D69C"/>
</svg>
