<svg width="32" height="32" viewBox="0 0 32 32" fill="none" xmlns="http://www.w3.org/2000/svg">
<rect width="32" height="32" rx="16" fill="#989898" fill-opacity="0.1"/>
<path d="M6 9.89227C6 12.0417 9.51797 13.7843 13.8577 13.7843C18.1973 13.7843 21.7153 12.0417 21.7153 9.89227C21.7153 7.74281 18.1973 6 13.8577 6C9.51797 6 6 7.74258 6 9.89227Z" fill="#989898"/>
<path d="M13.8574 16.722C14.0672 16.722 14.277 16.7114 14.4764 16.7009C14.9695 15.956 15.5988 15.3056 16.3334 14.7916C15.5147 14.9244 14.6867 14.991 13.8574 14.9909C10.1227 14.9909 6.99633 13.6901 6.19922 11.959C6.07336 12.2423 6 12.5255 6 12.8191C5.99977 14.97 9.51422 16.722 13.8574 16.722ZM19.8476 13.6167C19.9629 13.6062 20.0679 13.5956 20.1832 13.5956C20.6344 13.5956 21.075 13.6376 21.4945 13.7215C21.6309 13.4381 21.7043 13.1339 21.7043 12.8297C21.7043 12.536 21.6309 12.2421 21.5051 11.9695C21.222 12.5885 20.6449 13.1447 19.8476 13.6167Z" fill="#989898"/>
<path d="M13.4902 19.2817C13.5846 18.6733 13.763 18.0963 14.0147 17.5612H13.8574C10.1227 17.5612 6.99633 16.2604 6.19922 14.5293C6.07336 14.8127 6 15.0958 6 15.3895C5.99977 17.4773 9.32531 19.1873 13.4902 19.2817Z" fill="#989898"/>
<path d="M6.20947 17.0894C6.08361 17.3727 6.01025 17.6558 6.01025 17.9495C6.01025 20.0476 9.36721 21.7576 13.5742 21.8415C13.4692 21.3695 13.4064 20.8764 13.4064 20.3727C13.3959 20.2888 13.4064 20.2049 13.417 20.1104C9.88119 20.0162 6.97541 18.7574 6.20947 17.0894Z" fill="#989898"/>
<path d="M13.8574 24.4221C14.1511 24.4221 14.4345 24.4116 14.7176 24.4011C14.34 23.8871 14.0358 23.31 13.8155 22.6911C10.0913 22.6805 6.99633 21.3797 6.19922 19.6592C6.07336 19.9425 6 20.2257 6 20.5193C5.99977 22.6702 9.51422 24.4221 13.8574 24.4221Z" fill="#989898"/>
<path d="M13.8574 25.2506C10.1227 25.2506 6.99633 23.9498 6.19922 22.2188C6.07336 22.5021 6 22.7852 6 23.0789C6 25.2295 9.51445 26.9709 13.8577 26.9709C15.1376 26.9709 16.3439 26.8137 17.4035 26.5514C16.6587 26.2158 15.9769 25.7435 15.3998 25.177C14.8959 25.2295 14.382 25.2506 13.8574 25.2506Z" fill="#989898"/>
<path fill-rule="evenodd" clip-rule="evenodd" d="M13.8467 20.3727C13.8467 16.8477 16.7002 13.9941 20.2252 13.9941C23.75 13.9941 26.6035 16.8582 26.6037 20.3727C26.6037 23.8977 23.7502 26.7512 20.2252 26.7512C16.7002 26.7512 13.8467 23.8977 13.8467 20.3727ZM17.5303 17.5302C17.2374 17.8231 17.2374 18.298 17.5303 18.5909L19.2981 20.3586L17.5302 22.1265C17.2373 22.4194 17.2373 22.8943 17.5302 23.1872C17.8231 23.4801 18.298 23.4801 18.5909 23.1872L20.3588 21.4193L22.1265 23.1871C22.4194 23.48 22.8943 23.48 23.1872 23.1871C23.4801 22.8942 23.4801 22.4193 23.1872 22.1264L21.4194 20.3586L23.1871 18.591C23.48 18.2981 23.48 17.8232 23.1871 17.5303C22.8942 17.2374 22.4193 17.2374 22.1264 17.5303L20.3588 19.298L18.591 17.5302C18.2981 17.2373 17.8232 17.2373 17.5303 17.5302Z" fill="#989898"/>
</svg>
