<svg width="32" height="32" viewBox="0 0 32 32" fill="none" xmlns="http://www.w3.org/2000/svg">
<rect width="32" height="32" rx="16" fill="#277DFF" fill-opacity="0.1"/>
<path d="M5.69824 9.40643C5.69824 11.5559 9.21621 13.2985 13.5559 13.2985C17.8956 13.2985 21.4136 11.5559 21.4136 9.40643C21.4136 7.25697 17.8956 5.51416 13.5559 5.51416C9.21621 5.51416 5.69824 7.25674 5.69824 9.40643Z" fill="#277DFF"/>
<path d="M13.5557 16.2361C13.7654 16.2361 13.9752 16.2256 14.1746 16.215C14.6678 15.4702 15.2971 14.8198 16.0316 14.3058C15.213 14.4385 14.385 14.5052 13.5557 14.505C9.8209 14.505 6.69457 13.2042 5.89746 11.4731C5.7716 11.7565 5.69824 12.0396 5.69824 12.3333C5.69801 14.4842 9.21246 16.2361 13.5557 16.2361ZM19.5458 13.1309C19.6611 13.1203 19.7661 13.1098 19.8814 13.1098C20.3326 13.1098 20.7732 13.1517 21.1928 13.2356C21.3292 12.9523 21.4025 12.6481 21.4025 12.3438C21.4025 12.0502 21.3292 11.7563 21.2033 11.4837C20.9202 12.1027 20.3432 12.6588 19.5458 13.1309Z" fill="#277DFF"/>
<path d="M13.1884 18.7959C13.2829 18.1874 13.4612 17.6104 13.7129 17.0753H13.5557C9.8209 17.0753 6.69457 15.7746 5.89746 14.0435C5.7716 14.3268 5.69824 14.6099 5.69824 14.9036C5.69801 16.9914 9.02356 18.7014 13.1884 18.7959Z" fill="#277DFF"/>
<path d="M5.90771 16.6035C5.78186 16.8869 5.7085 17.17 5.7085 17.4637C5.7085 19.5618 9.06545 21.2718 13.2725 21.3557C13.1675 20.8837 13.1047 20.3905 13.1047 19.8869C13.0941 19.803 13.1047 19.7191 13.1152 19.6246C9.57943 19.5304 6.67365 18.2716 5.90771 16.6035Z" fill="#277DFF"/>
<path d="M13.5557 23.9363C13.8493 23.9363 14.1327 23.9258 14.4158 23.9152C14.0382 23.4012 13.734 22.8242 13.5137 22.2052C9.78949 22.1947 6.69457 20.8939 5.89746 19.1733C5.7716 19.4567 5.69824 19.7398 5.69824 20.0335C5.69801 22.1844 9.21246 23.9363 13.5557 23.9363Z" fill="#277DFF"/>
<path d="M13.5557 24.765C9.8209 24.765 6.69457 23.4642 5.89746 21.7331C5.7716 22.0165 5.69824 22.2996 5.69824 22.5933C5.69824 24.7439 9.2127 26.4853 13.5559 26.4853C14.8358 26.4853 16.0421 26.328 17.1018 26.0658C16.3569 25.7301 15.6751 25.2579 15.0981 24.6914C14.5942 24.7439 14.0802 24.765 13.5557 24.765ZM21.5706 19.5091H22.2421V20.4112H21.5706V19.5091ZM19.997 17.7886H20.6685V18.6907H19.997V17.7886ZM21.5706 17.7886H22.2421V18.6907H21.5706V17.7886Z" fill="#277DFF"/>
<path d="M19.9234 13.5083C16.3984 13.5083 13.5449 16.3618 13.5449 19.8868C13.5449 23.4118 16.3984 26.2653 19.9234 26.2653C23.4484 26.2653 26.302 23.4118 26.302 19.8868C26.3017 16.3724 23.4482 13.5083 19.9234 13.5083ZM18.9058 20.3799C18.7169 20.4113 18.5385 20.443 18.3602 20.4744V22.2263C18.3602 22.7195 18.1504 22.9923 17.7412 23.0237C17.4759 23.0448 17.2098 23.0553 16.9438 23.0551C16.9019 22.8034 16.8388 22.5095 16.7655 22.1844C16.776 22.1844 16.9438 22.1844 17.2691 22.1949C17.4161 22.1949 17.4895 22.1005 17.4895 21.9116V20.6422C17.2691 20.6947 17.0383 20.7367 16.8285 20.7995L16.7552 19.8554C16.9755 19.8343 17.2166 19.8029 17.4895 19.761V18.586H16.8077V17.7678H17.4895V16.6454H18.3602V17.7678H18.9686V18.586H18.3602V19.6142C18.573 19.5692 18.7863 19.5273 19 19.4884C18.9372 19.8657 18.9058 20.1596 18.9058 20.3799ZM23.102 21.5443H22.2419V21.2506H21.5704V23.1285H20.6683V21.2506H19.9968V21.5443H19.1366V16.9494H23.1023L23.102 21.5443Z" fill="#277DFF"/>
<path d="M19.9971 19.5093H20.6686V20.4114H19.9971V19.5093Z" fill="#277DFF"/>
</svg>
