<svg width="32" height="32" viewBox="0 0 32 32" fill="none" xmlns="http://www.w3.org/2000/svg">
<rect width="32" height="32" rx="16" fill="#46D69C" fill-opacity="0.1"/>
<path d="M24.6498 21.1189H18.6073L16.255 23.403V23.3913C16.2133 23.4733 16.1276 23.5295 16.0271 23.5295C15.9266 23.5295 15.8384 23.4733 15.7992 23.3913V23.403L13.4469 21.1189H7.35043C6.92898 21.1189 6.58838 20.7933 6.58838 20.3903V9.19928C6.58838 8.79634 6.92898 8.4707 7.35043 8.4707H24.6498C25.0713 8.4707 25.4119 8.79634 25.4119 9.19928V20.388C25.4143 20.7909 25.0713 21.1189 24.6498 21.1189ZM11.8027 13.456C11.0308 13.456 10.4036 14.0557 10.4036 14.7936C10.4036 15.5316 11.0308 16.1313 11.8027 16.1313C12.5746 16.1313 13.2018 15.5316 13.2018 14.7936C13.2018 14.0557 12.5746 13.456 11.8027 13.456ZM16.0001 13.456C15.2283 13.456 14.601 14.0557 14.601 14.7936C14.601 15.5316 15.2283 16.1313 16.0001 16.1313C16.772 16.1313 17.3993 15.5316 17.3993 14.7936C17.3993 14.0557 16.772 13.456 16.0001 13.456ZM20.1976 13.456C19.4257 13.456 18.7984 14.0557 18.7984 14.7936C18.7984 15.5316 19.4257 16.1313 20.1976 16.1313C20.9694 16.1313 21.5967 15.5316 21.5967 14.7936C21.5967 14.0557 20.9719 13.456 20.1976 13.456Z" fill="#46D69C"/>
</svg>
