<svg width="20" height="20" viewBox="0 0 20 20" fill="none" xmlns="http://www.w3.org/2000/svg">
<path d="M12.1626 8.14673L12.1658 8.65316L12.1654 8.14673H12.1626Z" fill="#FEC533"/>
<path d="M11.3212 2.06588C11.0867 1.95528 10.8087 1.98582 10.6047 2.14335C10.5953 2.15118 9.60311 2.92022 8.50835 3.70825C6.60294 5.07838 6.04776 5.30667 5.93557 5.34282H3.81529C3.25765 5.34282 2.76872 5.56849 2.43678 5.97927C2.15108 6.33193 2 6.7945 2 7.3166V10.1985V10.2048V13.0867C2 13.6088 2.15108 14.0714 2.43678 14.424C2.76872 14.8348 3.25767 15.0605 3.81529 15.0605H5.93557C6.04774 15.0966 6.60292 15.3249 8.50835 16.695C9.60311 17.4831 10.5953 18.2521 10.6047 18.2599C10.8087 18.4175 11.0867 18.448 11.3212 18.3374C11.555 18.2279 11.7036 17.9966 11.7036 17.7423V10.2048V10.1985V2.66102C11.7036 2.40665 11.555 2.17537 11.3212 2.06588Z" fill="#FEC533"/>
<path d="M18.9963 10.1986C18.9963 10.1985 18.9963 10.1985 18.9963 10.1985H18.9962C18.995 9.32738 18.7479 8.47907 18.2822 7.74565C17.8264 7.02914 17.1819 6.45041 16.4187 6.07352C16.0854 5.9089 15.6779 6.03887 15.5088 6.36437C15.3398 6.69063 15.4732 7.08798 15.8066 7.25259C16.9384 7.81189 17.6411 8.94152 17.6423 10.2017C17.6411 11.4618 16.9384 12.5914 15.8066 13.1507C15.4732 13.3154 15.3398 13.7127 15.5088 14.039C15.6779 14.3645 16.0854 14.4944 16.4187 14.3298C17.1819 13.9529 17.8264 13.3742 18.2822 12.6577C18.7479 11.9243 18.995 11.076 18.9962 10.2048H18.9963C18.9963 10.2048 18.9963 10.2047 18.9963 10.2047C18.9963 10.2037 18.9963 10.2027 18.9963 10.2017C18.9962 10.2006 18.9963 10.1996 18.9963 10.1986Z" fill="#FEC533"/>
<path d="M15.3725 10.1985C15.3559 9.7156 15.2146 9.26211 14.9777 8.86462C14.8934 8.65364 14.678 8.50354 14.4254 8.50354C14.0995 8.50354 13.8352 8.75349 13.8352 9.06188C13.8352 9.22011 13.9049 9.36286 14.0167 9.46445C14.1228 9.69207 14.1865 9.94065 14.1988 10.2017C14.1865 10.4627 14.1228 10.7113 14.0167 10.9389C13.9049 11.0405 13.8352 11.1833 13.8352 11.3415C13.8352 11.6499 14.0995 11.8998 14.4254 11.8998C14.678 11.8998 14.8934 11.7497 14.9777 11.5388C15.2146 11.1413 15.3559 10.6878 15.3725 10.2049H15.3728C15.3727 10.2038 15.3726 10.2027 15.3726 10.2017C15.3726 10.2006 15.3727 10.1996 15.3728 10.1985H15.3725Z" fill="#FEC533"/>
</svg>
