<svg width="20" height="20" viewBox="0 0 20 20" fill="none" xmlns="http://www.w3.org/2000/svg">
<circle cx="9.99967" cy="9.99967" r="6.66667" fill="white"/>
<path d="M9.99966 0.833008C4.93703 0.833008 0.833008 4.93665 0.833008 9.99969C0.833008 15.0619 4.93705 19.1663 9.99966 19.1663C15.0623 19.1663 19.1663 15.0619 19.1663 9.99969C19.1663 4.93665 15.0623 0.833008 9.99966 0.833008ZM13.5922 15.4618C13.2475 15.8096 12.6814 15.8096 12.3368 15.4618L9.20218 12.3101C8.96812 12.0746 8.98928 11.7466 8.98928 11.2477C8.98928 10.7481 8.87615 4.97288 8.87615 4.97288C8.87615 4.47751 9.27254 4.07626 9.76133 4.07626C10.2502 4.07626 10.6465 4.47751 10.6465 4.97288V11.2477C10.6465 11.2736 13.5991 14.2009 13.5991 14.2009C13.9436 14.5488 13.9368 15.1132 13.5922 15.4618Z" fill="#277DFF"/>
</svg>
